<?xml version="1.0" encoding="UTF-8"?>
<svg width="512px" height="428px" viewBox="0 0 512 428" version="1.1" xmlns="http://www.w3.org/2000/svg" xmlns:xlink="http://www.w3.org/1999/xlink">
    <!-- Generator: Sketch 58 (84663) - https://sketch.com -->
    <title>technology-integration</title>
    <desc>Created with Sketch.</desc>
    <g id="Page-1" stroke="none" stroke-width="1" fill="none" fill-rule="evenodd">
        <g id="technology-integration" transform="translate(0.000000, 0.666667)">
            <path d="M496,37.3333333 L496,304 C496,315.776 486.442667,325.333333 474.666667,325.333333 L37.3333333,325.333333 C25.5573333,325.333333 16,315.776 16,304 L16,37.3333333 C16,25.6 25.6,16 37.3333333,16 L474.666667,16 C486.4,16 496,25.6 496,37.3333333 Z" id="Path" fill="#ECEFF1" fill-rule="nonzero"></path>
            <path d="M474.666667,341.333333 L37.3333333,341.333333 C16.7466667,341.333333 0,324.586667 0,304 L0,37.3333333 C0,16.7466667 16.7466667,0 37.3333333,0 L474.666667,0 C495.253333,0 512,16.7466667 512,37.3333333 L512,304 C512,324.586667 495.253333,341.333333 474.666667,341.333333 Z M37.3333333,32 C34.3893333,32 32,34.3893333 32,37.3333333 L32,304 C32,306.944 34.3893333,309.333333 37.3333333,309.333333 L474.666667,309.333333 C477.610667,309.333333 480,306.944 480,304 L480,37.3333333 C480,34.3893333 477.610667,32 474.666667,32 L37.3333333,32 Z" id="Shape" fill="#000000" fill-rule="nonzero"></path>
            <path d="M346.666667,426.666667 L165.333333,426.666667 C156.501333,426.666667 149.333333,419.498667 149.333333,410.666667 C149.333333,401.834667 156.501333,394.666667 165.333333,394.666667 L346.666667,394.666667 C355.498667,394.666667 362.666667,401.834667 362.666667,410.666667 C362.666667,419.498667 355.498667,426.666667 346.666667,426.666667 Z" id="Path" fill="#000000" fill-rule="nonzero"></path>
            <path d="M256,426.666667 C247.168,426.666667 240,419.498667 240,410.666667 L240,325.333333 C240,316.501333 247.168,309.333333 256,309.333333 C264.832,309.333333 272,316.501333 272,325.333333 L272,410.666667 C272,419.498667 264.832,426.666667 256,426.666667 Z" id="Path" fill="#000000" fill-rule="nonzero"></path>
            <text id="LR" font-family="Rubik-Medium, Rubik" font-size="214" font-weight="400" fill="#000000">
                <tspan x="121" y="243.333333">LR</tspan>
            </text>
        </g>
    </g>
</svg>