<svg id="_x31__x2C_5" enable-background="new 0 0 24 24" height="512" viewBox="0 0 24 24" width="512" xmlns="http://www.w3.org/2000/svg"><path d="m23.25 5.75v11h-22.5v-11c0-.55.45-1 1-1h20.5c.55 0 1 .45 1 1z" fill="#eceff1"/><path d="m15.121 22.679c-1.064-1.064-1.096-2.095-1.096-2.146-.002-.223-.182-.403-.405-.403h-3.256c-.223 0-.405.184-.405.407 0 .044-.014 1.075-1.08 2.141-.116.116-.151.29-.088.441.062.151.21.25.374.25h5.67c.164 0 .312-.098.374-.25s.028-.324-.088-.44z" fill="#90a4ae"/><path d="m23.25 16.75v2.5c0 .55-.45 1-1 1h-20.5c-.55 0-1-.45-1-1v-2.5z" fill="#607d8b"/><g fill="#2196f3"><path d="m18.75 3.458c-.804 0-1.458-.654-1.458-1.458s.654-1.458 1.458-1.458 1.458.654 1.458 1.458-.654 1.458-1.458 1.458z"/><path d="m12 3.458c-.804 0-1.458-.654-1.458-1.458s.654-1.458 1.458-1.458 1.458.654 1.458 1.458-.654 1.458-1.458 1.458z"/><path d="m5.25 3.458c-.804 0-1.458-.654-1.458-1.458s.654-1.458 1.458-1.458 1.458.654 1.458 1.458-.654 1.458-1.458 1.458z"/></g><path d="m22.25 21h-20.5c-.965 0-1.75-.785-1.75-1.75v-13.5c0-.965.785-1.75 1.75-1.75h.27c.414 0 .75.336.75.75s-.336.75-.75.75h-.27c-.136 0-.25.114-.25.25v13.5c0 .136.114.25.25.25h20.5c.136 0 .25-.114.25-.25v-13.5c0-.136-.114-.25-.25-.25h-.27c-.414 0-.75-.336-.75-.75s.336-.75.75-.75h.27c.965 0 1.75.785 1.75 1.75v13.5c0 .965-.785 1.75-1.75 1.75z"/><path d="m23.25 17.5h-22.5c-.414 0-.75-.336-.75-.75s.336-.75.75-.75h22.5c.414 0 .75.336.75.75s-.336.75-.75.75z"/><path d="m15.25 24h-6.5c-.303 0-.577-.183-.693-.463s-.052-.602.163-.817c1.041-1.041 1.265-2.553 1.267-2.567.054-.411.435-.704.841-.646.411.054.7.431.646.841-.008.059-.147 1.066-.744 2.152h3.523c-.591-1.08-.738-2.088-.746-2.147-.057-.41.229-.788.64-.846.417-.06.788.229.846.639.007.045.232 1.469 1.184 2.487.195.136.323.361.323.617 0 .414-.336.75-.75.75z"/><path d="m12 14c-.414 0-.75-.336-.75-.75v-9.75c0-.414.336-.75.75-.75s.75.336.75.75v9.75c0 .414-.336.75-.75.75z"/><path d="m8.25 14c-.414 0-.75-.336-.75-.75v-3.25c0-.414.336-.75.75-.75s.75.336.75.75v3.25c0 .414-.336.75-.75.75z"/><path d="m8.25 10.75c-.211 0-.421-.089-.57-.262l-3-3.5c-.116-.135-.18-.309-.18-.488v-3c0-.414.336-.75.75-.75s.75.336.75.75v2.723l2.819 3.289c.27.314.233.788-.081 1.058-.141.12-.315.18-.488.18z"/><path d="m5.25 4c-1.103 0-2-.897-2-2s.897-2 2-2 2 .897 2 2-.897 2-2 2zm0-2.5c-.276 0-.5.225-.5.5s.224.5.5.5.5-.225.5-.5-.224-.5-.5-.5z"/><path d="m15.75 14c-.414 0-.75-.336-.75-.75v-3.25c0-.414.336-.75.75-.75s.75.336.75.75v3.25c0 .414-.336.75-.75.75z"/><path d="m15.75 10.75c-.173 0-.346-.06-.488-.181-.314-.27-.351-.743-.081-1.058l2.819-3.288v-2.723c0-.414.336-.75.75-.75s.75.336.75.75v3c0 .179-.064.353-.181.488l-3 3.5c-.148.173-.358.262-.569.262z"/><path d="m12 4c-1.103 0-2-.897-2-2s.897-2 2-2 2 .897 2 2-.897 2-2 2zm0-2.5c-.276 0-.5.225-.5.5s.224.5.5.5.5-.225.5-.5-.224-.5-.5-.5z"/><path d="m18.75 4c-1.103 0-2-.897-2-2s.897-2 2-2 2 .897 2 2-.897 2-2 2zm0-2.5c-.276 0-.5.225-.5.5s.224.5.5.5.5-.225.5-.5-.224-.5-.5-.5z"/></svg>