<svg id="_x31__x2C_5" enable-background="new 0 0 24 24" height="512" viewBox="0 0 24 24" width="512" xmlns="http://www.w3.org/2000/svg"><path d="m23.25 5.75v11h-22.5v-11c0-.55.45-1 1-1h20.5c.55 0 1 .45 1 1z" fill="#eceff1"/><path d="m15.121 22.679c-1.064-1.064-1.096-2.095-1.096-2.146-.002-.223-.182-.403-.405-.403h-3.256c-.223 0-.405.184-.405.407 0 .044-.014 1.075-1.08 2.141-.116.116-.151.29-.088.441.062.151.21.25.374.25h5.67c.164 0 .312-.098.374-.25s.028-.324-.088-.44z" fill="#90a4ae"/><path d="m23.25 16.75v2.5c0 .55-.45 1-1 1h-20.5c-.55 0-1-.45-1-1v-2.5z" fill="#607d8b"/><g fill="#2196f3"><path d="m17.5 4.525c-1.117 0-2.025-.908-2.025-2.025s.908-2.025 2.025-2.025 2.025.908 2.025 2.025-.908 2.025-2.025 2.025z"/><path d="m7.047 11.323h-1.094c-.703 0-1.276-.572-1.276-1.276v-1.094c0-.703.572-1.276 1.276-1.276h1.094c.703 0 1.276.572 1.276 1.276v1.094c0 .703-.573 1.276-1.276 1.276z"/><path d="m6.5 4.525c-1.117 0-2.025-.908-2.025-2.025s.908-2.025 2.025-2.025 2.025.908 2.025 2.025-.908 2.025-2.025 2.025z"/><path d="m18.108 11.525h-1.215c-.782 0-1.417-.636-1.417-1.417v-1.216c0-.782.636-1.418 1.417-1.418h1.215c.782 0 1.417.636 1.417 1.418v1.215c0 .782-.636 1.418-1.417 1.418z"/></g><path d="m22.25 21h-20.5c-.965 0-1.75-.785-1.75-1.75v-13.5c0-.965.785-1.75 1.75-1.75.414 0 .785.336.785.75s-.301.75-.715.75c-.206 0-.32.114-.32.25v13.5c0 .136.114.25.25.25h20.5c.136 0 .25-.114.25-.25v-13.5c0-.136-.114-.25-.25-.25-.414 0-.785-.336-.785-.75s.301-.75.715-.75h.07c.965 0 1.75.785 1.75 1.75v13.5c0 .965-.785 1.75-1.75 1.75z"/><path d="m23.25 17.5h-22.5c-.414 0-.75-.336-.75-.75s.336-.75.75-.75h22.5c.414 0 .75.336.75.75s-.336.75-.75.75z"/><path d="m15.25 24h-6.5c-.303 0-.577-.183-.693-.463s-.052-.603.163-.817c1.041-1.041 1.265-2.552 1.267-2.567.055-.411.43-.699.841-.646.411.054.7.431.646.841-.008.059-.147 1.066-.744 2.152h3.523c-.591-1.081-.738-2.088-.746-2.147-.057-.41.229-.789.64-.846.412-.056.789.229.846.638.007.045.232 1.469 1.184 2.488.195.136.323.361.323.617 0 .414-.336.75-.75.75z"/><path d="m17.5 5c-1.378 0-2.5-1.122-2.5-2.5s1.122-2.5 2.5-2.5 2.5 1.122 2.5 2.5-1.122 2.5-2.5 2.5zm0-3.5c-.551 0-1 .449-1 1s.449 1 1 1 1-.449 1-1-.449-1-1-1z"/><path d="m7.25 12h-1.5c-.965 0-1.75-.785-1.75-1.75v-1.5c0-.965.785-1.75 1.75-1.75h1.5c.965 0 1.75.785 1.75 1.75v1.5c0 .965-.785 1.75-1.75 1.75zm-1.5-3.5c-.138 0-.25.112-.25.25v1.5c0 .138.112.25.25.25h1.5c.138 0 .25-.112.25-.25v-1.5c0-.138-.112-.25-.25-.25z"/><path d="m6.5 5c-1.378 0-2.5-1.122-2.5-2.5s1.122-2.5 2.5-2.5 2.5 1.122 2.5 2.5-1.122 2.5-2.5 2.5zm0-3.5c-.551 0-1 .449-1 1s.449 1 1 1 1-.449 1-1-.449-1-1-1z"/><path d="m18.25 12h-1.5c-.965 0-1.75-.785-1.75-1.75v-1.5c0-.965.785-1.75 1.75-1.75h1.5c.965 0 1.75.785 1.75 1.75v1.5c0 .965-.785 1.75-1.75 1.75zm-1.5-3.5c-.138 0-.25.112-.25.25v1.5c0 .138.112.25.25.25h1.5c.138 0 .25-.112.25-.25v-1.5c0-.138-.112-.25-.25-.25z"/><path d="m15.5 3.25h-7c-.414 0-.75-.336-.75-.75s.336-.75.75-.75h7c.414 0 .75.336.75.75s-.336.75-.75.75z"/><path d="m12 10.25c-.414 0-.75-.336-.75-.75v-7c0-.414.336-.75.75-.75s.75.336.75.75v7c0 .414-.336.75-.75.75z"/><path d="m15.5 10.25h-7c-.414 0-.75-.336-.75-.75s.336-.75.75-.75h7c.414 0 .75.336.75.75s-.336.75-.75.75z"/></svg>