<svg id="_x31__x2C_5" enable-background="new 0 0 24 24" height="512" viewBox="0 0 24 24" width="512" xmlns="http://www.w3.org/2000/svg"><path d="m23.25 2.72v1.56h-22.5v-1.56c0-1.105.895-2 2-2h18.5c1.105 0 2 .895 2 2z" fill="#607d8b"/><path d="m23.25 4.28v15.87c0 .62-.5 1.13-1.12 1.13h-20.26c-.62 0-1.12-.51-1.12-1.13v-15.87z" fill="#eceff1"/><path d="m21.25 22h-18.5c-1.517 0-2.75-1.233-2.75-2.75v-16.5c0-1.517 1.233-2.75 2.75-2.75h18.5c1.517 0 2.75 1.233 2.75 2.75v16.5c0 1.517-1.233 2.75-2.75 2.75zm-18.5-20.5c-.689 0-1.25.561-1.25 1.25v16.5c0 .689.561 1.25 1.25 1.25h18.5c.689 0 1.25-.561 1.25-1.25v-16.5c0-.689-.561-1.25-1.25-1.25z"/><path d="m23.25 5h-22.5c-.414 0-.75-.336-.75-.75s.336-.75.75-.75h22.5c.414 0 .75.336.75.75s-.336.75-.75.75z"/><path d="m12 19c-.414 0-.75-.336-.75-.75v-4.439l-5.28-5.281c-.293-.293-.293-.768 0-1.061s.768-.293 1.061 0l5.5 5.5c.141.141.22.331.22.53v4.75c-.001.415-.337.751-.751.751z"/><path d="m6.25 12.333c-.414 0-.75-.336-.75-.75v-3.833c0-.414.336-.75.75-.75h3.833c.414 0 .75.336.75.75s-.336.75-.75.75h-3.083v3.083c0 .414-.336.75-.75.75z"/><path d="m14 12.25c-.192 0-.384-.073-.53-.22-.293-.293-.293-.768 0-1.061l3.5-3.5c.293-.293.768-.293 1.061 0s.293.768 0 1.061l-3.5 3.5c-.147.147-.339.22-.531.22z"/><path d="m17.75 12.333c-.414 0-.75-.336-.75-.75v-3.083h-3.083c-.414 0-.75-.336-.75-.75s.335-.75.75-.75h3.833c.414 0 .75.336.75.75v3.833c0 .414-.336.75-.75.75z"/></svg>